<svg id="visual" viewBox="0 0 900 600" width="900" height="600" xmlns="http://www.w3.org/2000/svg" xmlns:xlink="http://www.w3.org/1999/xlink" version="1.1"><rect x="0" y="0" width="900" height="600" fill="#ffffff"></rect><path d="M0 158L129 147L257 105L386 149L514 136L643 129L771 143L900 114L900 0L771 0L643 0L514 0L386 0L257 0L129 0L0 0Z" fill="#a1fef6"></path><path d="M0 103L129 97L257 116L386 85L514 110L643 87L771 97L900 109L900 0L771 0L643 0L514 0L386 0L257 0L129 0L0 0Z" fill="#66fcf1"></path><path d="M0 60L129 76L257 81L386 48L514 48L643 65L771 60L900 67L900 0L771 0L643 0L514 0L386 0L257 0L129 0L0 0Z" fill="#45c2b8"></path></svg>